<?xml version="1.0" encoding="UTF-8"?>
<svg xmlns="http://www.w3.org/2000/svg" viewBox="0 0 296.48 116.96">
  <defs>
    <style>
      .cls-1 {
        fill: #db9566;
      }

      .cls-2 {
        fill: #edc975;
      }

      .cls-3 {
        fill: #f8fbff;
      }
    </style>
  </defs>
  <g id="_圖層_2" data-name="圖層 2">
    <path class="cls-2" d="m131.78,92.13c1.55-2.2,4.81-7.71,3.97-19.84-1.12-16.07-8.61-31.5-12.48-38.67-.41-.75.12-1.67.98-1.69,1.87-.04,4.16.13,6.66.78,1.45.38,3.92,1.05,6.58,2.81,1.63,1.08,2.11,1.76,5.9,4.84.96.78,1.78,1.43,2.4,1.91.26.21.43.51.44.84.03.95-.08,2.56-1.02,4.18-1.88,3.25-5.48,3.8-5.96,3.87.69.03,2.62.02,4.48-1.26,1.54-1.06,2.32-2.5,2.72-3.64.28-.81,1.3-1.06,1.9-.44.81.82,1.7,1.87,2.51,3.16.73,1.17,4.09,6.51,2.61,13.28-1.7,7.75-8.4,11.23-9.32,11.69,1.59-.65,4.57-2.13,7.16-5.23,1.3-1.55,2.17-3.11,2.75-4.43.37-.84,1.53-.93,2.03-.15,1.87,2.92,2.57,5.56,2.87,7.09,1.34,6.9-1.3,13.12-4.34,16.59-2.33,2.65-4.21,2.91-4.76,2.96-1.76.16-3.19-.59-3.9-1.03.38.34,1.92,1.64,4.19,1.61.28,0,.58-.03.93-.09,3.31-.58,6.94-3.68,6.96-3.66,0,.01-.2,6.99-.97,9.1,0,0-.88,5.84-4.84,9.68-13.5,13.12-131.05,16.38-133.35-3.87-.36-3.2,1.77-10.23-2.55-15.83-1.55-2.01-3.44-3.2-4.85-3.9l-9.59,2.13c-.69.15-1.36-.35-1.4-1.06L0,74.84c-.03-.57.35-1.07.91-1.19l12.32-2.63c1.84-.39,3.15-2.02,3.15-3.9v-10.4c0-2.57-2.4-4.47-4.9-3.88l-7.47,1.77c-.69.16-1.36-.33-1.41-1.04l-.61-8.99c-.04-.57.35-1.08.9-1.2l12.58-2.72c.53-.11.91-.58.91-1.12v-15.68c0-.73-.68-1.27-1.4-1.12-3.49.74-6.61,1.31-9.37,1.69-.5.07-.97-.2-1.19-.65L.13,14.79c-.34-.71.13-1.54.91-1.63,14.68-1.75,27.39-5.04,38.12-9.87.5-.23,1.09-.07,1.4.38l5.53,7.88c.42.59.19,1.43-.47,1.72-4.98,2.15-10.7,4.14-17.18,5.95-.5.14-.84.59-.84,1.1v15.96c0,.74.69,1.29,1.41,1.12l13.34-3.12c.69-.16,1.35.33,1.41,1.03l.71,8.89c.05.57-.33,1.08-.89,1.21l-12.88,2.95c-1.81.42-3.09,2.03-3.09,3.88v10c0,2.56,2.37,4.45,4.86,3.89l11.84-2.68c.69-.16,1.36.35,1.4,1.06l.51,9.14c.03.5-.27.96-.74,1.14l-12.69,4.76c-1.35.31-2.25,1.55-2.19,2.93.26,5.55-1.09,10.92,3.5,15.67,10.98,11.39,59.13,7.42,59.13,7.42,16.54-.65,25.7-3.54,33.4-8.22,1.57-.95,3.39-2.71,5.16-5.23Z"/>
    <circle class="cls-2" cx="109.24" cy="10.35" r="6.76"/>
    <path class="cls-1" d="m106.74,4.31s.03,7.53,8.52,8.52c0,0-7.73-2.79-8.52-8.52Z"/>
    <path class="cls-1" d="m109.4,16.39s-.02-5.47-6.19-6.19c0,0,5.61,2.03,6.19,6.19Z"/>
    <path class="cls-2" d="m120.35,55.21c1.73-4.15-1.08-7.94-1.58-8.61-.19-.26-3.56-4.63-8.95-4.04-5.3.58-7.67,5.41-8,6.12-.72,1.54-.92,2.96-.98,3.92h-2.11c.14-6.65.26-12.94.32-17.81.02-1.44,1.19-2.6,2.64-2.6h11.68c1.46,0,2.64-1.18,2.64-2.64v-6.19c0-1.46-1.18-2.64-2.64-2.64h-11.3c-.74,0-1.9,0-3.03-.02-3.15-.09-1.36-9.07-2.29-13.32-.41-1.87-.91-2.45-1.1-2.72-3.27-4.45-12.88-3.84-15.46-.31-.48.66-.63,1.24-1.21,7.13-.28,2.91-.5,5.38-.66,7.22,0,1.46-2.29,2.02-3.75,2.02h-10.01c-1.46,0-2.64,1.18-2.64,2.64v6.19c0,1.46,1.18,2.64,2.64,2.64h10.01c1.05,0,1.98-.25,2.78.54.56.55.9,1.28.9,2.07v17.8h-4.65c-.06-.96-.26-2.38-.98-3.92-.33-.71-2.7-5.55-8-6.12-5.39-.59-8.76,3.78-8.95,4.04-.5.67-3.31,4.46-1.58,8.61,1.68,4.01,6.13,4.84,6.45,4.9-.41.14-4.8,1.69-6.04,6.12-.84,2.99.24,5.51.58,6.22.32.68,1.37,2.66,3.62,3.96,3.11,1.79,7.46,1.67,10.57-.8,3.53-2.79,3.59-7.1,3.59-7.67h5.37v17.17c0,.46-.12.93-.34,1.34-.68,1.25-1.17,1.38-1.73,1.64-.59.27-3.86.42-9.81.47-1.78.01-3.04,1.75-2.5,3.44l1.96,6.13c.34,1.07,1.33,1.8,2.44,1.83,2.04.06,3.78.1,5.13.14,14.31.37,17.69.83,21-1.12,1.45-.86,2.65-3.34,3.12-4.45.14-.33.22-.69.23-1.05.07-2.44.35-13.23.64-25.53h3.2c0,.57.07,4.88,3.59,7.67,3.11,2.46,7.46,2.58,10.57.8,2.26-1.3,3.3-3.28,3.62-3.96.34-.71,1.42-3.24.58-6.22-1.24-4.43-5.63-5.98-6.04-6.12.32-.05,4.77-.88,6.45-4.9Z"/>
  </g>
  <g id="_圖層_3" data-name="圖層 3">
    <g>
      <path class="cls-3" d="m234.05,0c-16.23,9.49-32.45,18.97-48.68,28.46v21.01c16.23-10.39,32.45-20.78,48.68-31.17,16.42,10.28,32.84,20.55,49.26,30.83v-20.67c-16.42-9.49-32.84-18.97-49.26-28.46Z"/>
      <path class="cls-3" d="m287.37,64.23c-8.12.91-20.36-7.07-27.67-12.54-4.28-5.87-12.14-9.82-21.16-9.82h-8.41c-9.01,0-16.87,3.95-21.16,9.82-7.31,5.46-19.55,13.45-27.67,12.54-12.22-1.37-11.18,19.02-2.6,17.64,5.92-.95,19.28-1.58,28.18-12.74.84,4.5,1.67,9,2.51,13.5-6.48,10.25-4.91,21.81,3.34,28.47,6.26,5.05,14.41,5.73,17.39,5.85h8.41c2.99-.12,11.14-.8,17.39-5.85,8.25-6.66,9.82-18.22,3.34-28.47.84-4.5,1.67-9,2.51-13.5,8.9,11.16,22.26,11.79,28.18,12.74,8.58,1.37,9.62-19.02-2.6-17.64Zm-47.92,27.59c-.98,1.2-1.95,2.4-2.93,3.61-1.15,1.42-3.32,1.41-4.45-.02-.96-1.2-1.91-2.4-2.87-3.61-1.49-1.87-.16-4.63,2.24-4.63h5.79c2.4,0,3.73,2.79,2.22,4.66Z"/>
    </g>
  </g>
</svg>